<svg xmlns="http://www.w3.org/2000/svg" viewBox="0 0 96 96" width="96" height="96" role="img">
<defs>
  <linearGradient id="g" x1="0" y1="0" x2="1" y2="1">
    <stop offset="0" stop-color="#D4A72C"/><stop offset="1" stop-color="#E9C25A"/>
  </linearGradient>
  <linearGradient id="gr" x1="0" y1="0" x2="1" y2="1">
    <stop offset="0" stop-color="#006A4E"/><stop offset="1" stop-color="#008F5A"/>
  </linearGradient></defs>

  <circle cx="48" cy="48" r="46" fill="#0C2318" stroke="#008F5A" stroke-width="3"/>
  
    <circle cx="48" cy="48" r="28" fill="#F2F5F3"/>
    <path d="M48 30 l12 9 -4.5 14h-15L36 39z" fill="#111"/>
    <path d="M48 20 l7 5 -3 8h-8l-3-8z" fill="#111" opacity=".85"/><path d="M24 42 l7 5 -3 8h-8l-3-8z" fill="#111" opacity=".85"/><path d="M33 70 l7 5 -3 8h-8l-3-8z" fill="#111" opacity=".85"/><path d="M63 70 l7 5 -3 8h-8l-3-8z" fill="#111" opacity=".85"/><path d="M72 42 l7 5 -3 8h-8l-3-8z" fill="#111" opacity=".85"/>
</svg>
