<svg xmlns="http://www.w3.org/2000/svg" viewBox="0 0 300 300" width="300" height="300" role="img">
<defs>
  <linearGradient id="bg" x1="0" y1="0" x2="1" y2="1">
    <stop offset="0" stop-color="#123526"/><stop offset="1" stop-color="#07130D"/>
  </linearGradient>
  <linearGradient id="g" x1="0" y1="0" x2="1" y2="1">
    <stop offset="0" stop-color="#D4A72C"/><stop offset="1" stop-color="#E9C25A"/>
  </linearGradient>
  <linearGradient id="gr" x1="0" y1="0" x2="1" y2="1">
    <stop offset="0" stop-color="#006A4E"/><stop offset="1" stop-color="#008F5A"/>
  </linearGradient></defs>

  <rect width="300" height="300" rx="18" fill="url(#bg)"/>
  <g opacity=".30">
    <circle cx="103" cy="-162" r="133" fill="#D4A72C" opacity=".38"/>
    <path d="M0 213 q75 -33 150 0 t150 0 V300 H0 Z" fill="#D4A72C" opacity=".22"/>
  </g>
  <g transform="rotate(1 150 150)">
    <circle cx="150" cy="150" r="96" fill="none" stroke="url(#g)" stroke-width="3" opacity=".4"/>
    <circle cx="112" cy="118" r="32" fill="#D62828"/>
      <circle cx="112" cy="118" r="18" fill="#fff" opacity=".92"/>
      <text x="112" y="126" text-anchor="middle" font-family="Teko, Arial, sans-serif" font-size="24" font-weight="700" fill="#08170F">8</text><circle cx="188" cy="118" r="32" fill="#008F5A"/>
      <circle cx="188" cy="118" r="18" fill="#fff" opacity=".92"/>
      <text x="188" y="126" text-anchor="middle" font-family="Teko, Arial, sans-serif" font-size="24" font-weight="700" fill="#08170F">19</text><circle cx="112" cy="190" r="32" fill="#1F6FB2"/>
      <circle cx="112" cy="190" r="18" fill="#fff" opacity=".92"/>
      <text x="112" y="198" text-anchor="middle" font-family="Teko, Arial, sans-serif" font-size="24" font-weight="700" fill="#08170F">27</text><circle cx="188" cy="190" r="32" fill="#D4A72C"/>
      <circle cx="188" cy="190" r="18" fill="#fff" opacity=".92"/>
      <text x="188" y="198" text-anchor="middle" font-family="Teko, Arial, sans-serif" font-size="24" font-weight="700" fill="#08170F">36</text></g>
  <rect x="1" y="1" width="298" height="298" rx="17" fill="none" stroke="#1E4633"/>
</svg>
